<svg width="24" height="24" viewBox="0 0 24 24" fill="none" xmlns="http://www.w3.org/2000/svg">
<path d="M6 18H18M6 18V13.5M6 18L3 20V4L6 6M18 18V13.5M18 18L21 20V4L18 6M6 6H18M6 6V13.5M18 6H13.125V6C12.2656 8.75019 14.6085 11.4403 17.4506 10.9666L18 10.875V6ZM18 6V13.5M6 13.5L6.31672 13.3416C8.00588 12.4971 9.99412 12.4971 11.6833 13.3416L11.7549 13.3774C12.8891 13.9445 14.1738 14.1377 15.4246 13.9292L18 13.5M8.25 18V13.125M10.125 18V13.125M12 18V13.5M13.875 18V14.25M15.75 18V14.25M6.375 18V13.5M17.625 18V13.875" stroke="black" stroke-width="1.5" stroke-linecap="round" stroke-linejoin="round"/>
</svg>
