<svg width="24" height="24" viewBox="0 0 24 24" fill="none" xmlns="http://www.w3.org/2000/svg">
<path d="M3 17.5556L3.45 6H13.2857H20.55L21 17.5556M3 17.5556H21M3 17.5556L3.45 19H20.55L21 17.5556M13 10L12.75 12M12.5 14L12.75 12M12.75 12L15.5 14M12.75 12L16 10M10.7909 11.673L10.663 12.6962C10.5699 13.441 9.9367 14 9.18605 14V14C8.29077 14 7.59808 13.2153 7.70913 12.327L7.83702 11.3038C7.93013 10.559 8.5633 10 9.31395 10V10C10.2092 10 10.9019 10.7847 10.7909 11.673Z" stroke="black" stroke-width="1.25" stroke-linecap="round" stroke-linejoin="round"/>
</svg>
