<svg width="24" height="24" viewBox="0 0 24 24" fill="none" xmlns="http://www.w3.org/2000/svg">
<path d="M20 4H4V14M20 4H13.5V4C12.3541 7.66692 15.478 11.2537 19.2675 10.6221L20 10.5V4ZM20 4V14M4 14V20H20V14M4 14L5.31672 13.3416C7.00588 12.4971 8.99412 12.4971 10.6833 13.3416L12.2549 14.1274C13.3891 14.6945 14.6738 14.8877 15.9246 14.6792L20 14M7 20V13.5M9.5 20V13.5M12 20V14M14.5 20V15M17 20V15M4.5 20V14M19.5 20V14.5" stroke="black" stroke-width="1.5" stroke-linecap="round" stroke-linejoin="round"/>
</svg>
