<svg width="24" height="24" viewBox="0 0 24 24" fill="none" xmlns="http://www.w3.org/2000/svg">
<path d="M10.75 22.5C10.75 22.9142 11.0858 23.25 11.5 23.25C11.9142 23.25 12.25 22.9142 12.25 22.5H10.75ZM12.25 9.5V8.75H10.75V9.5H12.25ZM14.7628 7.71151C15.1558 7.8425 15.5805 7.63013 15.7115 7.23717C15.8425 6.84421 15.6301 6.41947 15.2372 6.28849L14.7628 7.71151ZM2.23717 10.7885C1.84421 10.6575 1.41947 10.8699 1.28849 11.2628C1.1575 11.6558 1.36987 12.0805 1.76283 12.2115L2.23717 10.7885ZM3.75 22.5C3.75 22.9142 4.08579 23.25 4.5 23.25C4.91421 23.25 5.25 22.9142 5.25 22.5H3.75ZM5.25 15.5V14.75H3.75V15.5H5.25ZM7.25 22.5C7.25 22.9142 7.58579 23.25 8 23.25C8.41421 23.25 8.75 22.9142 8.75 22.5H7.25ZM8.75 14V13.25H7.25V14H8.75ZM18.5768 11.3205L18.4535 10.5807L18.5768 11.3205ZM22.0823 5.7134L22.5704 5.14396L22.0823 5.7134ZM21.3384 5.0758L21.8265 4.50636L21.3384 5.0758ZM6.29161 10.724L5.68506 10.2829L6.29161 10.724ZM2.91672 11.8056L2.67955 12.5171L2.91672 11.8056ZM7.7764 8.68245L8.38296 9.12357L7.7764 8.68245ZM12.25 22.5V9.5H10.75V22.5H12.25ZM7.16985 8.24132L5.68506 10.2829L6.89816 11.1652L8.38296 9.12357L7.16985 8.24132ZM3.15389 11.0941L2.23717 10.7885L1.76283 12.2115L2.67955 12.5171L3.15389 11.0941ZM15.2372 6.28849L13.2636 5.63063L12.7892 7.05365L14.7628 7.71151L15.2372 6.28849ZM19.0084 9.03386L19.9089 9.4198L20.4998 8.04108L19.5993 7.65515L19.0084 9.03386ZM22.5704 5.14396L21.8265 4.50636L20.8503 5.64525L21.5942 6.28284L22.5704 5.14396ZM18.4535 10.5807L18.2815 10.6094L18.5281 12.089L18.7001 12.0603L18.4535 10.5807ZM18.5828 14.25H18.7572V12.75H18.5828V14.25ZM5.25 22.5V15.5H3.75V22.5H5.25ZM8.75 22.5V14H7.25V22.5H8.75ZM16.75 12.4172C16.75 13.4294 17.5706 14.25 18.5828 14.25V12.75C18.399 12.75 18.25 12.601 18.25 12.4172H16.75ZM18.2815 10.6094C17.3977 10.7567 16.75 11.5213 16.75 12.4172H18.25C18.25 12.2546 18.3676 12.1157 18.5281 12.089L18.2815 10.6094ZM18.7001 12.0603C18.9671 12.0158 19.1801 12.2804 19.0795 12.5317L20.4722 13.0888C21.0071 11.7517 19.874 10.344 18.4535 10.5807L18.7001 12.0603ZM23.3293 7.88383C23.6568 6.90118 23.3568 5.81805 22.5704 5.14396L21.5942 6.28284C21.9176 6.56003 22.041 7.00542 21.9063 7.40949L23.3293 7.88383ZM19.9089 9.4198C21.2788 10.0069 22.858 9.29777 23.3293 7.88383L21.9063 7.40949C21.7125 7.9909 21.0631 8.2825 20.4998 8.04108L19.9089 9.4198ZM18.935 6.93315C18.5509 5.78093 19.9282 4.85483 20.8503 5.64525L21.8265 4.50636C19.7493 2.72588 16.6468 4.812 17.5119 7.40749L18.935 6.93315ZM13.2636 5.63063C12.4434 5.35722 11.5566 5.35722 10.7364 5.63063L11.2108 7.05365C11.7231 6.88288 12.2769 6.88288 12.7892 7.05365L13.2636 5.63063ZM5.68506 10.2829C5.10826 11.076 4.08422 11.4042 3.15389 11.0941L2.67955 12.5171C4.23011 13.0339 5.93683 12.487 6.89816 11.1652L5.68506 10.2829ZM17.5119 7.40749C17.7556 8.13846 18.3002 8.73035 19.0084 9.03386L19.5993 7.65515C19.2849 7.52041 19.0431 7.25765 18.935 6.93315L17.5119 7.40749ZM18.7572 14.25C19.5125 14.25 20.1917 13.7901 20.4722 13.0888L19.0795 12.5317C19.0268 12.6636 18.8991 12.75 18.7572 12.75V14.25ZM8.38296 9.12357C9.08681 8.15577 10.0755 7.43208 11.2108 7.05365L10.7364 5.63063C9.30454 6.10792 8.05759 7.02067 7.16985 8.24132L8.38296 9.12357Z" fill="black"/>
</svg>
