<svg width="48" height="48" viewBox="0 0 48 48" fill="none" xmlns="http://www.w3.org/2000/svg">
<path d="M8 13.5556V6H16V13.5556M8 13.5556H16M8 13.5556V21.1111M16 13.5556V21.1111M8 21.1111H16M8 21.1111V28.6667M16 21.1111V28.6667M8 28.6667H16M8 28.6667V32M16 28.6667V31.5M8 32V36C8 38.2091 9.79086 40 12 40V40C14.2091 40 16 38.2091 16 36V31.5M8 32H15L16 31.5" stroke="black" stroke-width="1.5" stroke-linecap="round" stroke-linejoin="round"/>
<path d="M34.4444 32H42V40H34.4444M34.4444 32V40M34.4444 32H26.8889M34.4444 40H26.8889M26.8889 32V40M26.8889 32H19.3333M26.8889 40H19.3333M19.3333 32V40M19.3333 32H16M19.3333 40H16.5M16 32H12C9.79086 32 8 33.7909 8 36V36C8 38.2091 9.79086 40 12 40H16.5M16 32V39L16.5 40" stroke="black" stroke-width="1.5" stroke-linecap="round" stroke-linejoin="round"/>
<path d="M24.6344 17.6717L29.9585 12.35L35.9481 18.3369L30.624 23.6585M24.6344 17.6717L30.624 23.6585M24.6344 17.6717L19.3103 22.9933M30.624 23.6585L25.2999 28.9802M19.3103 22.9933L25.2999 28.9802M19.3103 22.9933L16 26L16 32L22 32L25.2999 28.9802" stroke="black" stroke-width="1.5" stroke-linecap="round" stroke-linejoin="round"/>
</svg>
