<svg width="24" height="24" viewBox="0 0 24 24" fill="none" xmlns="http://www.w3.org/2000/svg">
<path d="M10.2222 16.4444H13.7778M7.55556 12H16.4444M8 14.2222H16M8 9.77778H16M10.2222 7.55556H13.7778M16.8889 12V12C16.8889 14.7001 14.7001 16.8889 12 16.8889V16.8889C9.29994 16.8889 7.11111 14.7001 7.11111 12V12C7.11111 9.29994 9.29994 7.11111 12 7.11111V7.11111C14.7001 7.11111 16.8889 9.29994 16.8889 12ZM20 12V12C20 16.4183 16.4183 20 12 20V20C7.58172 20 4 16.4183 4 12V12C4 7.58172 7.58172 4 12 4V4C16.4183 4 20 7.58172 20 12Z" stroke="black" stroke-width="1.5" stroke-linecap="round" stroke-linejoin="round"/>
</svg>
