<svg width="24" height="24" viewBox="0 0 24 24" fill="none" xmlns="http://www.w3.org/2000/svg">
<path d="M7.1875 11.125V11.125C10.2963 9.99454 13.7037 9.99454 16.8125 11.125V11.125M7.1875 12.875V12.875C10.2963 14.0055 13.7037 14.0055 16.8125 12.875V12.875M11.125 7.1875V7.1875C9.99454 10.2963 9.99454 13.7037 11.125 16.8125V16.8125M12.875 7.1875V7.1875C14.0055 10.2963 14.0055 13.7037 12.875 16.8125V16.8125M4 20H20V4H4V20ZM17.25 12V12C17.25 14.8995 14.8995 17.25 12 17.25V17.25C9.10051 17.25 6.75 14.8995 6.75 12V12C6.75 9.10051 9.10051 6.75 12 6.75V6.75C14.8995 6.75 17.25 9.10051 17.25 12Z" stroke="black" stroke-width="1.5" stroke-linecap="round" stroke-linejoin="round"/>
</svg>
