<svg width="48" height="48" viewBox="0 0 48 48" fill="none" xmlns="http://www.w3.org/2000/svg">
<path d="M12 36H36M12 36V27M12 36L6 40V8L12 12M36 36V27M36 36L42 40V8L36 12M12 12H36M12 12V27M36 12H26.25V12C24.5311 17.5004 29.2169 22.8805 34.9012 21.9331L36 21.75V12ZM36 12V27M12 27L12.6334 26.6833C16.0118 24.9941 19.9882 24.9941 23.3666 26.6833L23.5098 26.7549C25.7781 27.8891 28.3475 28.2754 30.8491 27.8585L36 27M16.5 36V26.25M20.25 36V26.25M24 36V27M27.75 36V28.5M31.5 36V28.5M12.75 36V27M35.25 36V27.75" stroke="black" stroke-width="1.5" stroke-linecap="round" stroke-linejoin="round"/>
</svg>
