<svg width="24" height="24" viewBox="0 0 24 24" fill="none" xmlns="http://www.w3.org/2000/svg">
<path d="M12 18.2381L8.73333 23M12 18.2381L15.2667 23M12 18.2381H9.8125M12 18.2381H14.1875M12 18.2381L12 12.5238M5.4375 18.2381H5V12.5238M5.4375 18.2381H7.625M5.4375 18.2381V12.5238M7.625 18.2381H9.8125M7.625 18.2381V12.0476M9.8125 18.2381V12.0476M14.1875 18.2381H16.375M14.1875 18.2381V13.4762M16.375 18.2381H18.5625M16.375 18.2381V13.4762M18.5625 18.2381H19V12.5238M18.5625 18.2381V13M13.3125 3H5V12.5238M13.3125 3H19V9.19048M13.3125 3C12.3098 6.4923 15.0432 9.90826 18.3591 9.30675L19 9.19048M19 9.19048V12.5238M5 12.5238L6.15213 11.8968C7.63015 11.0924 9.36985 11.0924 10.8479 11.8968L12 12.5238M12 12.5238L12.223 12.6452C13.2154 13.1853 14.3395 13.3692 15.434 13.1707L19 12.5238" stroke="black" stroke-width="1.5" stroke-linecap="round" stroke-linejoin="round"/>
</svg>
