<svg width="24" height="24" viewBox="0 0 24 24" fill="none" xmlns="http://www.w3.org/2000/svg">
<path d="M4 6.77778V3H8V6.77778M4 6.77778H8M4 6.77778V10.5556M8 6.77778V10.5556M4 10.5556H8M4 10.5556V14.3333M8 10.5556V14.3333M4 14.3333H8M4 14.3333V15.75M8 14.3333V15.75M4 15.75V18C4 19.1046 4.89543 20 6 20V20C7.10457 20 8 19.1046 8 18V15.75M4 15.75H7.5H8" stroke="black" stroke-width="1.5" stroke-linecap="round" stroke-linejoin="round"/>
<path d="M17.2222 16H21V20H17.2222M17.2222 16V20M17.2222 16H13.4444M17.2222 20H13.4444M13.4444 16V20M13.4444 16H9.66667M13.4444 20H9.66667M9.66667 16V20M9.66667 16H8.25M9.66667 20H8.25M8.25 16H6C4.89543 16 4 16.8954 4 18V18C4 19.1046 4.89543 20 6 20H8.25M8.25 16V19.5V20" stroke="black" stroke-width="1.5" stroke-linecap="round" stroke-linejoin="round"/>
<path d="M12.3172 8.83581L14.9792 6.17499L17.9741 9.16841L15.312 11.8292M12.3172 8.83581L15.312 11.8292M12.3172 8.83581L9.65515 11.4966M15.312 11.8292L12.65 14.4901M9.65515 11.4966L12.65 14.4901M9.65515 11.4966L6.9931 14.1575M12.65 14.4901L9.98791 17.1509M6.9931 14.1575L9.98791 17.1509M6.9931 14.1575L5.99483 15.1553M9.98791 17.1509L8.98964 18.1487M5.99483 15.1553L4.49743 16.652C3.67044 17.4786 3.67044 18.8188 4.49743 19.6454V19.6454C5.32442 20.472 6.66524 20.472 7.49224 19.6454L8.98964 18.1487M5.99483 15.1553L8.61529 17.7745L8.98964 18.1487" stroke="black" stroke-width="1.5" stroke-linecap="round" stroke-linejoin="round"/>
</svg>
