<svg width="24" height="24" viewBox="0 0 24 24" fill="none" xmlns="http://www.w3.org/2000/svg">
<g clip-path="url(#clip0_863_108)">
<path d="M12 14.1C13.1598 14.1 14.1 13.1598 14.1 12C14.1 10.8402 13.1598 9.90002 12 9.90002C10.8402 9.90002 9.90002 10.8402 9.90002 12C9.90002 13.1598 10.8402 14.1 12 14.1Z" stroke="black" stroke-width="1.4" stroke-linecap="round" stroke-linejoin="round"/>
<path d="M17.18 14.1C17.0868 14.3111 17.059 14.5453 17.1002 14.7724C17.1414 14.9995 17.2496 15.209 17.411 15.374L17.453 15.416C17.5832 15.546 17.6864 15.7004 17.7569 15.8704C17.8273 16.0403 17.8636 16.2225 17.8636 16.4065C17.8636 16.5905 17.8273 16.7726 17.7569 16.9426C17.6864 17.1126 17.5832 17.267 17.453 17.397C17.323 17.5272 17.1686 17.6304 16.9986 17.7009C16.8286 17.7713 16.6465 17.8076 16.4625 17.8076C16.2785 17.8076 16.0963 17.7713 15.9264 17.7009C15.7564 17.6304 15.602 17.5272 15.472 17.397L15.43 17.355C15.265 17.1936 15.0555 17.0854 14.8284 17.0442C14.6013 17.003 14.3671 17.0308 14.156 17.124C13.9489 17.2127 13.7724 17.3601 13.648 17.5479C13.5236 17.7357 13.4569 17.9557 13.456 18.181V18.3C13.456 18.6713 13.3085 19.0274 13.0459 19.2899C12.7834 19.5525 12.4273 19.7 12.056 19.7C11.6847 19.7 11.3286 19.5525 11.066 19.2899C10.8035 19.0274 10.656 18.6713 10.656 18.3V18.237C10.6506 18.0053 10.5756 17.7806 10.4407 17.5921C10.3059 17.4036 10.1175 17.26 9.89999 17.18C9.68886 17.0868 9.45465 17.059 9.22758 17.1002C9.0005 17.1414 8.79096 17.2496 8.62599 17.411L8.58399 17.453C8.45397 17.5832 8.29956 17.6864 8.1296 17.7569C7.95965 17.8273 7.77747 17.8636 7.59349 17.8636C7.40951 17.8636 7.22733 17.8273 7.05737 17.7569C6.88741 17.6864 6.73301 17.5832 6.60299 17.453C6.47282 17.323 6.36956 17.1686 6.2991 16.9986C6.22865 16.8286 6.19239 16.6465 6.19239 16.4625C6.19239 16.2785 6.22865 16.0963 6.2991 15.9264C6.36956 15.7564 6.47282 15.602 6.60299 15.472L6.64499 15.43C6.80636 15.265 6.91462 15.0555 6.95579 14.8284C6.99696 14.6013 6.96917 14.3671 6.87599 14.156C6.78725 13.9489 6.63992 13.7724 6.45211 13.648C6.26431 13.5236 6.04424 13.4569 5.81899 13.456H5.69999C5.32868 13.456 4.97259 13.3085 4.71004 13.0459C4.44749 12.7834 4.29999 12.4273 4.29999 12.056C4.29999 11.6847 4.44749 11.3286 4.71004 11.066C4.97259 10.8035 5.32868 10.656 5.69999 10.656H5.76299C5.99468 10.6506 6.21939 10.5756 6.4079 10.4407C6.5964 10.3059 6.73999 10.1175 6.81999 9.89999C6.91317 9.68886 6.94096 9.45465 6.89979 9.22758C6.85862 9.0005 6.75036 8.79096 6.58899 8.62599L6.54699 8.58399C6.41682 8.45397 6.31356 8.29956 6.2431 8.1296C6.17265 7.95965 6.13639 7.77747 6.13639 7.59349C6.13639 7.40951 6.17265 7.22733 6.2431 7.05737C6.31356 6.88741 6.41682 6.73301 6.54699 6.60299C6.67701 6.47282 6.83141 6.36956 7.00137 6.2991C7.17133 6.22865 7.35351 6.19239 7.53749 6.19239C7.72147 6.19239 7.90365 6.22865 8.0736 6.2991C8.24356 6.36956 8.39797 6.47282 8.52799 6.60299L8.56999 6.64499C8.73496 6.80636 8.9445 6.91462 9.17158 6.95579C9.39865 6.99696 9.63286 6.96917 9.84399 6.87599H9.89999C10.107 6.78725 10.2836 6.63992 10.408 6.45211C10.5323 6.26431 10.5991 6.04424 10.6 5.81899V5.69999C10.6 5.32868 10.7475 4.97259 11.01 4.71004C11.2726 4.44749 11.6287 4.29999 12 4.29999C12.3713 4.29999 12.7274 4.44749 12.9899 4.71004C13.2525 4.97259 13.4 5.32868 13.4 5.69999V5.76299C13.4009 5.98824 13.4676 6.20831 13.592 6.39611C13.7164 6.58392 13.8929 6.73125 14.1 6.81999C14.3111 6.91317 14.5453 6.94096 14.7724 6.89979C14.9995 6.85862 15.209 6.75036 15.374 6.58899L15.416 6.54699C15.546 6.41682 15.7004 6.31356 15.8704 6.2431C16.0403 6.17265 16.2225 6.13639 16.4065 6.13639C16.5905 6.13639 16.7726 6.17265 16.9426 6.2431C17.1126 6.31356 17.267 6.41682 17.397 6.54699C17.5272 6.67701 17.6304 6.83141 17.7009 7.00137C17.7713 7.17133 17.8076 7.35351 17.8076 7.53749C17.8076 7.72147 17.7713 7.90365 17.7009 8.0736C17.6304 8.24356 17.5272 8.39797 17.397 8.52799L17.355 8.56999C17.1936 8.73496 17.0854 8.9445 17.0442 9.17158C17.003 9.39865 17.0308 9.63286 17.124 9.84399V9.89999C17.2127 10.107 17.3601 10.2836 17.5479 10.408C17.7357 10.5323 17.9557 10.5991 18.181 10.6H18.3C18.6713 10.6 19.0274 10.7475 19.2899 11.01C19.5525 11.2726 19.7 11.6287 19.7 12C19.7 12.3713 19.5525 12.7274 19.2899 12.9899C19.0274 13.2525 18.6713 13.4 18.3 13.4H18.237C18.0117 13.4009 17.7917 13.4676 17.6039 13.592C17.4161 13.7164 17.2687 13.8929 17.18 14.1V14.1Z" stroke="black" stroke-width="1.4" stroke-linecap="round" stroke-linejoin="round"/>
</g>
<defs>
<clipPath id="clip0_863_108">
<rect width="16.8" height="16.8" fill="white" transform="translate(3.59998 3.59998)"/>
</clipPath>
</defs>
</svg>
