<svg width="24" height="24" viewBox="0 0 24 24" fill="none" xmlns="http://www.w3.org/2000/svg">
<path d="M7.52663 7.488L5.57463 13.44C5.56396 13.472 5.56929 13.504 5.59063 13.536C5.61196 13.5573 5.63863 13.568 5.67063 13.568H9.43063C9.46263 13.568 9.48396 13.5573 9.49463 13.536C9.51596 13.504 9.52663 13.472 9.52663 13.44L7.57463 7.488C7.57463 7.47733 7.56929 7.472 7.55863 7.472C7.53729 7.472 7.52663 7.47733 7.52663 7.488ZM3.41463 18C3.25463 18 3.12663 17.936 3.03063 17.808C2.93463 17.6693 2.91329 17.5253 2.96663 17.376L6.61462 6.992C6.68929 6.78933 6.81196 6.62933 6.98263 6.512C7.16396 6.384 7.36129 6.32 7.57463 6.32C7.78796 6.32 7.97996 6.384 8.15063 6.512C8.33196 6.62933 8.45996 6.78933 8.53463 6.992L12.1666 17.36C12.22 17.52 12.1986 17.6693 12.1026 17.808C12.0066 17.936 11.8786 18 11.7186 18C11.5053 18 11.3133 17.9413 11.1426 17.824C10.9826 17.696 10.8706 17.536 10.8066 17.344L9.95863 14.72C9.92663 14.6347 9.86263 14.592 9.76663 14.592H5.33463C5.24929 14.592 5.19063 14.6347 5.15863 14.72L4.27863 17.376C4.21463 17.568 4.10263 17.7227 3.94263 17.84C3.79329 17.9467 3.61729 18 3.41463 18ZM17.6851 13.6C16.6291 13.6 15.8291 13.7707 15.2851 14.112C14.7518 14.4533 14.4851 14.9333 14.4851 15.552C14.4851 16.032 14.6185 16.4213 14.8851 16.72C15.1625 17.008 15.5251 17.152 15.9731 17.152C16.7411 17.152 17.3758 16.896 17.8771 16.384C18.3891 15.872 18.6451 15.1947 18.6451 14.352V13.744C18.6451 13.648 18.5971 13.6 18.5011 13.6H17.6851ZM15.7171 18.16C14.9918 18.16 14.3998 17.9307 13.9411 17.472C13.4825 17.0133 13.2531 16.4053 13.2531 15.648C13.2531 14.7627 13.6051 14.0533 14.3091 13.52C15.0131 12.9867 16.1385 12.72 17.6851 12.72H18.5011C18.5971 12.72 18.6451 12.6773 18.6451 12.592V12.288C18.6451 11.6373 18.4958 11.184 18.1971 10.928C17.8985 10.6613 17.3705 10.528 16.6131 10.528C15.8771 10.528 15.0825 10.6667 14.2291 10.944C14.1011 10.9867 13.9838 10.9707 13.8771 10.896C13.7705 10.8213 13.7171 10.7147 13.7171 10.576C13.7171 10.2027 13.8931 9.96267 14.2451 9.856C15.0345 9.632 15.8238 9.52 16.6131 9.52C17.8398 9.52 18.6878 9.744 19.1571 10.192C19.6371 10.64 19.8771 11.4453 19.8771 12.608V17.424C19.8771 17.584 19.8185 17.7227 19.7011 17.84C19.5945 17.9467 19.4611 18 19.3011 18C19.1411 18 19.0025 17.9467 18.8851 17.84C18.7678 17.7227 18.7091 17.584 18.7091 17.424L18.6931 16.592C18.6931 16.5813 18.6878 16.576 18.6771 16.576C18.6558 16.576 18.6451 16.5867 18.6451 16.608C18.0158 17.6427 17.0398 18.16 15.7171 18.16Z" fill="black"/>
</svg>
